<svg height="16" style="fill-rule:evenodd" width="16" xmlns="http://www.w3.org/2000/svg">
    <path d="M8 1c3.863 0 7 3.137 7 7s-3.137 7-7 7-7-3.137-7-7 3.137-7 7-7Zm1.167 7.684v-5.35H6.833v5.35L4.625 6.475a1.374 1.374 0 0 0-.193-.156 1.214 1.214 0 0 0-.772-.178 1.167 1.167 0 0 0-.685 1.984C4.39 9.539 5.768 10.99 7.22 12.367c.11.093.227.17.362.223a1.176 1.176 0 0 0 1.243-.265c1.415-1.414 2.866-2.793 4.243-4.246a1.16 1.16 0 0 0 .06-1.487 1.18 1.18 0 0 0-1.037-.454 1.214 1.214 0 0 0-.624.254c-.046.04-.046.04-.092.083Z" style="opacity:.8;fill-opacity:1;stroke-width:1.57695"/>
</svg>
