<?xml version="1.0" encoding="UTF-8"?>
<svg id="Layer_1" xmlns="http://www.w3.org/2000/svg" version="1.1" viewBox="0 0 500 146">
  <!-- Generator: Adobe Illustrator 30.0.0, SVG Export Plug-In . SVG Version: 2.1.1 Build 123)  -->
  <defs>
    <style>
      .st0 {
        fill: #126ed3;
      }

      .st1 {
        fill: #290042;
      }
    </style>
  </defs>
  <g>
    <path class="st0" d="M123.95,77.77c0,2.71-3.11,4.32-5.27,2.69-2.38-1.8-3.9-4.64-5.13-6.94-1.69-3.15-2.82-5.07-4.34-5.07s-2.65,1.91-4.34,5.07c-1.97,3.67-4.66,8.71-10.41,8.71s-8.44-5.03-10.41-8.71c-1.69-3.15-2.82-5.07-4.33-5.07s-2.64,1.91-4.32,5.07c-1.96,3.68-4.65,8.71-10.4,8.71s-8.44-5.03-10.4-8.71c-1.69-3.15-2.82-5.07-4.33-5.07s-2.64,1.91-4.33,5.07c-1.96,3.68-4.66,8.71-10.4,8.71s-8.44-5.03-10.4-8.71c-1.18-2.21-2.09-3.81-3.05-4.57-.75-.6-1.28-1.43-1.28-2.39v-.54c0-2.71,3.11-4.32,5.28-2.69,2.38,1.8,3.89,4.63,5.12,6.94,1.69,3.15,2.82,5.07,4.33,5.07s2.64-1.91,4.33-5.07c1.96-3.68,4.66-8.71,10.4-8.71s8.44,5.03,10.4,8.71c1.69,3.15,2.82,5.07,4.33,5.07s2.64-1.91,4.33-5.07c1.96-3.68,4.65-8.71,10.4-8.71s8.44,5.03,10.41,8.71c1.69,3.15,2.82,5.07,4.33,5.07s2.65-1.91,4.34-5.07c1.97-3.68,4.66-8.71,10.41-8.71s8.44,5.03,10.41,8.71c1.18,2.21,2.09,3.81,3.05,4.57.75.6,1.29,1.43,1.29,2.39v.54Z"/>
    <path class="st0" d="M73.28,125.01c-12.43,0-24.25-4.26-33.78-12.14-1.53-1.27-1.65-3.58-.29-5.02h0c1.25-1.32,3.3-1.43,4.7-.27,8.61,7.11,19.36,10.84,30.64,10.53,11.27-.3,21.82-4.59,30.03-12.15,1.34-1.23,3.39-1.23,4.7.02h0c1.44,1.37,1.44,3.69-.02,5.04-9.44,8.7-21.57,13.64-34.53,13.98-.49.01-.97.02-1.46.02Z"/>
    <path class="st0" d="M37.35,37.77h0c-1.45-1.37-1.44-3.69.03-5.04,9.73-8.95,22.07-13.62,34.53-13.95,12.45-.33,25.03,3.68,35.22,12.09,1.54,1.27,1.67,3.59.3,5.03h0c-1.25,1.32-3.29,1.43-4.69.27-8.79-7.25-19.61-10.74-30.35-10.52-10.94.22-21.79,4.29-30.34,12.14-1.33,1.23-3.38,1.22-4.69-.03Z"/>
  </g>
  <path class="st1" d="M151.91,72.46c-2.24-.98-3.99-2.37-5.27-4.16-1.13-1.59-1.76-3.41-1.89-5.47-.03-.44.35-.82.79-.82h2.95c1.74,0,3.45.89,4.2,2.46.35.74.85,1.4,1.48,1.98,1.26,1.16,3.02,1.74,5.3,1.74s4.19-.57,5.51-1.71c1.32-1.14,1.98-2.6,1.98-4.4,0-1.4-.41-2.53-1.23-3.41-.82-.88-1.84-1.56-3.06-2.04-1.22-.48-2.9-1-5.06-1.56-2.72-.72-4.92-1.45-6.62-2.19-1.7-.74-3.14-1.89-4.34-3.44-1.2-1.56-1.8-3.63-1.8-6.23,0-2.4.6-4.49,1.8-6.29,1.2-1.8,2.88-3.17,5.03-4.13s4.65-1.44,7.49-1.44c4.03,0,7.34,1.01,9.91,3.03,2.36,1.85,3.75,4.32,4.19,7.42.06.46-.31.88-.78.88h-6c-.39,0-.69-.29-.77-.67-.25-1.23-.94-2.31-2.06-3.23-1.32-1.08-3.05-1.62-5.21-1.62-1.96,0-3.56.5-4.79,1.5-1.24,1-1.86,2.44-1.86,4.31,0,1.28.39,2.33,1.17,3.14s1.77,1.47,2.97,1.95c1.2.48,2.83,1,4.91,1.56,2.76.76,5,1.52,6.74,2.28,1.74.76,3.21,1.93,4.43,3.5,1.22,1.58,1.83,3.68,1.83,6.32,0,2.12-.57,4.11-1.71,5.99-1.14,1.88-2.8,3.38-4.97,4.52-2.18,1.14-4.74,1.71-7.7,1.71-2.8,0-5.31-.49-7.55-1.47Z"/>
  <path class="st1" d="M186.99,71.92c-2.52-1.42-4.49-3.42-5.93-5.99-1.44-2.58-2.16-5.56-2.16-8.95s.74-6.33,2.22-8.93c1.48-2.6,3.49-4.59,6.05-5.99,2.56-1.4,5.41-2.1,8.57-2.1s6.01.7,8.56,2.1c2.56,1.4,4.57,3.4,6.05,5.99,1.48,2.6,2.22,5.57,2.22,8.93s-.76,6.33-2.28,8.92c-1.52,2.6-3.59,4.6-6.2,6.02-2.62,1.42-5.5,2.13-8.66,2.13s-5.93-.71-8.45-2.13ZM200.38,66.86c1.54-.84,2.79-2.1,3.75-3.77.96-1.68,1.44-3.71,1.44-6.11s-.46-4.42-1.38-6.08c-.92-1.66-2.14-2.91-3.65-3.74-1.52-.84-3.16-1.26-4.91-1.26s-3.38.42-4.88,1.26c-1.5.84-2.69,2.09-3.57,3.74-.88,1.66-1.32,3.68-1.32,6.08,0,3.55.91,6.3,2.73,8.24,1.82,1.94,4.1,2.9,6.86,2.9,1.76,0,3.4-.42,4.94-1.26Z"/>
  <path class="st1" d="M256.7,48.05c1.38-2.56,3.26-4.54,5.63-5.96,2.38-1.42,5-2.13,7.88-2.13,2.6,0,4.86.51,6.8,1.53,1.94,1.02,3.48,2.29,4.64,3.8v-.12c0-2.58,2.09-4.67,4.67-4.67h1.44c.43,0,.78.35.78.78v31.45c0,.43-.35.78-.78.78h-5.33c-.43,0-.78-.35-.78-.78v-4.13c-1.16,1.56-2.74,2.86-4.73,3.89-2,1.04-4.27,1.56-6.83,1.56-2.84,0-5.43-.73-7.79-2.19-2.35-1.46-4.22-3.49-5.6-6.11-1.38-2.62-2.07-5.58-2.07-8.89s.69-6.25,2.07-8.81ZM280.25,51.05c-.94-1.68-2.17-2.95-3.68-3.83-1.52-.88-3.16-1.32-4.91-1.32s-3.39.43-4.91,1.29c-1.52.86-2.75,2.12-3.68,3.77-.94,1.66-1.41,3.63-1.41,5.9s.47,4.27,1.41,5.99c.94,1.72,2.18,3.03,3.71,3.92,1.54.9,3.16,1.35,4.88,1.35s3.4-.44,4.91-1.32c1.52-.88,2.74-2.17,3.68-3.86.94-1.7,1.41-3.68,1.41-5.96s-.47-4.25-1.41-5.93Z"/>
  <path class="st1" d="M308.78,41.37c1.46-.82,3.15-1.29,5.09-1.39.44-.02.81.35.81.79v6.26s-1.74,0-1.74,0c-2.67,0-4.7.68-6.08,2.04-1.38,1.36-2.07,3.71-2.07,7.07v16.59c0,.43-.35.78-.78.78h-5.27c-.43,0-.78-.35-.78-.78v-31.45c0-.43.35-.78.78-.78h1.38c2.58,0,4.67,2.09,4.67,4.67v.12c1-1.68,2.32-2.98,3.98-3.92Z"/>
  <path class="st1" d="M246.83,46.38c-1.16-2.12-2.77-3.71-4.82-4.79s-4.38-1.62-6.98-1.62c-.23,0-.45.02-.67.03-.03,0-.05-.01-.08-.01-.11,0-.21.02-.31.03-.27.02-.53.05-.78.08-.19.02-.39.05-.58.09-.33.06-.65.12-.96.2-.05.01-.1.03-.16.04-.82.23-1.59.54-2.3.94-1.66.94-2.98,2.25-3.98,3.92v-.12c0-2.58-2.09-4.67-4.67-4.67h-1.38c-.43,0-.78.35-.78.78v31.45c0,.43.35.78.78.78h5.27c.43,0,.78-.35.78-.78v-16.59s0-.06,0-.09v-.98c0-2.96.75-5.22,2.25-6.8,1.5-1.58,3.53-2.37,6.08-2.37s4.57.79,6.05,2.37c1.48,1.58,2.22,3.84,2.22,6.8v17.67c0,.43.35.78.78.78h5.21c.43,0,.78-.35.78-.78v-18.69c0-3-.58-5.55-1.74-7.67Z"/>
  <path class="st0" d="M354.67,80.52l-6.82-7.37c-1.8.52-3.77.78-5.93.78-3.87,0-7.44-.91-10.69-2.73-3.26-1.82-5.83-4.35-7.73-7.61-1.9-3.25-2.84-6.92-2.84-10.99s.95-7.73,2.84-10.96c1.9-3.24,4.47-5.76,7.73-7.58,3.26-1.82,6.82-2.73,10.69-2.73s7.5.91,10.75,2.73c3.26,1.82,5.82,4.34,7.7,7.58,1.88,3.23,2.81,6.89,2.81,10.96,0,3.83-.83,7.3-2.49,10.39-1.66,3.09-3.94,5.58-6.86,7.46l2.79,3.06c1.82,1.99,1.57,5.11-.53,6.79l-.37.3c-.32.26-.78.22-1.06-.08ZM329.49,60.72c1.22,2.34,2.91,4.13,5.06,5.39,2.15,1.26,4.61,1.89,7.37,1.89s5.21-.63,7.37-1.89c2.16-1.26,3.84-3.05,5.06-5.39,1.22-2.34,1.83-5.04,1.83-8.12s-.61-5.77-1.83-8.09c-1.22-2.32-2.9-4.09-5.06-5.33-2.16-1.24-4.61-1.86-7.37-1.86s-5.21.62-7.37,1.86c-2.16,1.24-3.85,3.02-5.06,5.33-1.22,2.32-1.83,5.01-1.83,8.09s.61,5.78,1.83,8.12Z"/>
  <path class="st0" d="M400.25,45.18v27.55c0,.43-.35.78-.78.78h-5.27c-.43,0-.78-.35-.78-.78v-3.11c-1.08,1.36-2.49,2.42-4.22,3.2-1.73.78-3.58,1.17-5.54,1.17-2.6,0-4.92-.54-6.98-1.62-2.06-1.08-3.68-2.67-4.85-4.79-1.18-2.12-1.77-4.67-1.77-7.67v-18.63c0-.43.35-.78.78-.78h1.32c2.58,0,4.67,2.09,4.67,4.67v13.72c0,2.95.74,5.22,2.21,6.8,1.48,1.58,3.5,2.37,6.05,2.37s4.58-.79,6.08-2.37c1.5-1.58,2.25-3.84,2.25-6.8v-17.61c0-.43.35-.78.78-.78h1.38c2.58,0,4.67,2.09,4.67,4.67Z"/>
  <path class="st0" d="M419.51,41.49c2.01-1.02,4.26-1.53,6.74-1.53,2.91,0,5.55.7,7.9,2.1,2.36,1.4,4.21,3.38,5.57,5.96,1.36,2.58,2.04,5.52,2.04,8.84s-.68,6.28-2.04,8.89c-1.36,2.62-3.23,4.65-5.6,6.11-2.38,1.46-5,2.19-7.88,2.19-2.56,0-4.82-.5-6.8-1.5-1.98-1-3.54-2.28-4.7-3.83v4.01c0,.43-.35.78-.78.78h-5.27c-.43,0-.78-.35-.78-.78V29.96c0-.43.35-.78.78-.78h1.38c2.58,0,4.67,2.09,4.67,4.67v11.56c1.16-1.6,2.74-2.9,4.76-3.92ZM433.4,50.96c-.94-1.66-2.18-2.91-3.71-3.77-1.54-.86-3.19-1.29-4.94-1.29s-3.34.44-4.88,1.32c-1.54.88-2.77,2.16-3.71,3.83-.94,1.68-1.41,3.65-1.41,5.93s.47,4.26,1.41,5.96c.94,1.7,2.18,2.99,3.71,3.86,1.54.88,3.16,1.32,4.88,1.32s3.4-.45,4.94-1.35c1.54-.9,2.77-2.21,3.71-3.92.94-1.72,1.41-3.71,1.41-5.99s-.47-4.24-1.41-5.9Z"/>
  <path class="st0" d="M478.27,59.55h-24.53c.2,2.63,1.18,4.75,2.94,6.35,1.76,1.6,3.91,2.4,6.47,2.4,3.51,0,6.03-1.4,7.57-4.2.14-.25.39-.41.67-.41h6.91c-1,3.03-2.81,5.52-5.42,7.46-2.61,1.94-5.86,2.9-9.73,2.9-3.16,0-5.98-.71-8.48-2.13-2.49-1.42-4.45-3.42-5.87-5.99-1.42-2.58-2.13-5.56-2.13-8.95s.69-6.38,2.07-8.96c1.38-2.58,3.32-4.56,5.81-5.96,2.49-1.4,5.36-2.1,8.6-2.1s5.89.68,8.33,2.04c2.43,1.36,4.33,3.26,5.69,5.72,1.36,2.46,2.04,5.28,2.04,8.48,0,.97-.05,1.86-.14,2.68-.05.39-.39.67-.78.67ZM472.06,54.04c-.04-2.52-.94-4.53-2.7-6.05-1.76-1.52-3.93-2.28-6.53-2.28-2.36,0-4.37.75-6.05,2.25-1.68,1.5-2.67,3.52-2.99,6.08h18.27Z"/>
  <g>
    <path class="st0" d="M147.58,87.85c-.48-.48-.72-1.07-.72-1.77s.24-1.29.72-1.77c.48-.48,1.07-.72,1.77-.72s1.24.24,1.71.72c.47.48.7,1.07.7,1.77s-.23,1.29-.7,1.77c-.47.48-1.04.72-1.71.72s-1.29-.24-1.77-.72ZM151.12,92.15v22.07h-3.66v-22.07h3.66Z"/>
    <path class="st0" d="M157.77,97.17c.91-1.71,2.17-3.03,3.76-3.97,1.6-.94,3.39-1.41,5.38-1.41,1.72,0,3.32.39,4.79,1.19,1.48.79,2.6,1.83,3.38,3.12v-11.68h3.71v29.8h-3.71v-4.15c-.72,1.32-1.8,2.39-3.22,3.24-1.42.85-3.09,1.27-4.99,1.27s-3.74-.48-5.34-1.45c-1.6-.97-2.85-2.32-3.76-4.07-.91-1.74-1.37-3.73-1.37-5.96s.45-4.23,1.37-5.94ZM174.07,98.8c-.67-1.24-1.58-2.18-2.72-2.84-1.14-.66-2.4-.99-3.77-.99s-2.62.32-3.74.97c-1.13.64-2.03,1.58-2.7,2.82-.67,1.24-1.01,2.68-1.01,4.35s.34,3.16,1.01,4.41c.67,1.25,1.57,2.2,2.7,2.86,1.13.66,2.37.99,3.74.99s2.62-.33,3.77-.99c1.14-.66,2.05-1.61,2.72-2.86s1.01-2.7,1.01-4.37-.33-3.11-1.01-4.35Z"/>
    <path class="st0" d="M205.4,104.56h-17.64c.13,2.17.88,3.87,2.23,5.09s3,1.83,4.93,1.83c1.58,0,2.91-.37,3.97-1.11,1.06-.74,1.8-1.72,2.23-2.96h3.95c-.59,2.12-1.77,3.85-3.54,5.18-1.77,1.33-3.97,1.99-6.6,1.99-2.09,0-3.97-.47-5.62-1.41-1.65-.94-2.95-2.27-3.88-4.01-.94-1.73-1.41-3.74-1.41-6.02s.45-4.28,1.37-6c.91-1.72,2.19-3.04,3.84-3.97,1.65-.93,3.55-1.39,5.7-1.39s3.95.45,5.56,1.37c1.61.91,2.85,2.17,3.73,3.76.87,1.6,1.31,3.4,1.31,5.42,0,.7-.04,1.44-.12,2.22ZM200.81,97.97c-.62-1.01-1.46-1.77-2.52-2.3-1.06-.52-2.23-.78-3.52-.78-1.85,0-3.43.59-4.73,1.77-1.3,1.18-2.05,2.82-2.24,4.91h13.93c0-1.4-.31-2.6-.93-3.6Z"/>
    <path class="st0" d="M225.58,84.42v29.8h-3.66v-29.8h3.66Z"/>
    <path class="st0" d="M232.22,97.17c.91-1.71,2.17-3.03,3.76-3.97,1.6-.94,3.38-1.41,5.34-1.41s3.61.41,5.03,1.25c1.42.83,2.48,1.88,3.18,3.14v-4.03h3.7v22.07h-3.7v-4.11c-.72,1.29-1.8,2.35-3.24,3.2-1.44.85-3.11,1.27-5.01,1.27s-3.73-.48-5.32-1.45c-1.58-.97-2.83-2.32-3.74-4.07-.91-1.74-1.37-3.73-1.37-5.96s.45-4.23,1.37-5.94ZM248.53,98.8c-.67-1.24-1.58-2.18-2.72-2.84-1.14-.66-2.4-.99-3.77-.99s-2.62.32-3.74.97c-1.13.64-2.03,1.58-2.7,2.82-.67,1.24-1.01,2.68-1.01,4.35s.34,3.16,1.01,4.41c.67,1.25,1.57,2.2,2.7,2.86,1.13.66,2.37.99,3.74.99s2.62-.33,3.77-.99c1.14-.66,2.05-1.61,2.72-2.86s1.01-2.7,1.01-4.37-.33-3.11-1.01-4.35Z"/>
    <path class="st0" d="M266.81,93.04c1.45-.83,3.1-1.25,4.95-1.25,1.98,0,3.77.47,5.36,1.41,1.58.94,2.83,2.26,3.75,3.97.91,1.7,1.37,3.68,1.37,5.94s-.46,4.22-1.37,5.96c-.91,1.75-2.17,3.1-3.77,4.07-1.6.97-3.38,1.45-5.33,1.45s-3.58-.42-5.01-1.25-2.52-1.89-3.24-3.18v4.07h-3.67v-29.8h3.67v11.84c.75-1.32,1.85-2.39,3.3-3.22ZM277.48,98.76c-.67-1.24-1.58-2.17-2.72-2.82-1.14-.64-2.4-.97-3.77-.97s-2.58.33-3.72.99-2.05,1.61-2.74,2.86c-.68,1.25-1.03,2.69-1.03,4.33s.34,3.12,1.03,4.37c.69,1.25,1.6,2.2,2.74,2.86s2.38.99,3.72.99,2.63-.33,3.77-.99c1.14-.66,2.05-1.61,2.72-2.86.67-1.25,1.01-2.72,1.01-4.41s-.33-3.11-1.01-4.35Z"/>
    <path class="st0" d="M290.73,113.72c-1.34-.58-2.4-1.38-3.18-2.41-.78-1.03-1.21-2.22-1.29-3.57h3.78c.11,1.1.62,2,1.55,2.7.93.7,2.14,1.05,3.64,1.05,1.4,0,2.5-.31,3.3-.93.8-.62,1.21-1.4,1.21-2.34s-.43-1.68-1.29-2.15c-.86-.47-2.19-.93-3.99-1.39-1.64-.43-2.97-.87-4.01-1.31-1.03-.44-1.92-1.1-2.66-1.97-.74-.87-1.11-2.02-1.11-3.44,0-1.13.33-2.16,1.01-3.1.67-.94,1.62-1.68,2.86-2.23s2.64-.83,4.23-.83c2.44,0,4.41.62,5.92,1.85,1.51,1.24,2.31,2.93,2.42,5.07h-3.66c-.08-1.16-.54-2.08-1.39-2.78s-1.98-1.05-3.4-1.05c-1.32,0-2.36.28-3.14.85-.78.56-1.17,1.3-1.17,2.22,0,.72.23,1.32.7,1.79.47.47,1.06.85,1.77,1.13.71.28,1.7.6,2.96.95,1.58.43,2.87.85,3.87,1.27.99.42,1.84,1.04,2.56,1.87.71.83,1.08,1.92,1.11,3.26,0,1.21-.33,2.29-1,3.26-.67.97-1.62,1.73-2.84,2.27-1.22.55-2.62.83-4.21.83-1.69,0-3.21-.29-4.55-.87Z"/>
  </g>
</svg>