<?xml version="1.0" encoding="UTF-8"?>
<svg id="Layer_1" data-name="Layer 1" xmlns="http://www.w3.org/2000/svg" xmlns:xlink="http://www.w3.org/1999/xlink" viewBox="0 0 250 250">
  <defs>
    <style>
      .cls-1 {
        fill: url(#radial-gradient-2);
      }

      .cls-2 {
        fill: #0070d9;
      }

      .cls-3 {
        fill: url(#linear-gradient-8);
      }

      .cls-4 {
        fill: url(#linear-gradient-7);
      }

      .cls-5 {
        fill: url(#linear-gradient-5);
      }

      .cls-6 {
        fill: url(#linear-gradient-6);
      }

      .cls-7 {
        fill: url(#linear-gradient-9);
      }

      .cls-8 {
        fill: url(#linear-gradient-4);
      }

      .cls-9 {
        fill: url(#linear-gradient-3);
      }

      .cls-10 {
        fill: url(#linear-gradient-2);
      }

      .cls-11 {
        fill: url(#radial-gradient);
      }

      .cls-12 {
        fill: url(#linear-gradient);
      }

      .cls-13 {
        fill: #241f20;
        stroke: #241f20;
        stroke-linecap: round;
        stroke-linejoin: round;
        stroke-width: 4px;
      }

      .cls-14 {
        fill: #b7d3f2;
      }

      .cls-15 {
        fill: #fff;
      }

      .cls-16 {
        fill: url(#linear-gradient-10);
      }

      .cls-17 {
        fill: url(#linear-gradient-11);
      }

      .cls-18 {
        fill: url(#linear-gradient-12);
      }

      .cls-19 {
        fill: #ff7cff;
      }

      .cls-20 {
        fill: #afd3f4;
      }
    </style>
    <linearGradient id="linear-gradient" x1="90.26" y1="251.58" x2="88.36" y2="163.07" gradientUnits="userSpaceOnUse">
      <stop offset="0" stop-color="#0070d9"/>
      <stop offset=".5" stop-color="#b7d3f2"/>
      <stop offset="1" stop-color="#0070d9"/>
    </linearGradient>
    <linearGradient id="linear-gradient-2" x1="91.61" y1="153.75" x2="105.95" y2="215.47" gradientUnits="userSpaceOnUse">
      <stop offset="0" stop-color="#0070d9"/>
      <stop offset="1" stop-color="#b7d3f2"/>
    </linearGradient>
    <linearGradient id="linear-gradient-3" x1="108.8" y1="157.31" x2="128.83" y2="211.45" xlink:href="#linear-gradient-2"/>
    <linearGradient id="linear-gradient-4" x1="235.6" y1="172.99" x2="186.6" y2="140.33" gradientUnits="userSpaceOnUse">
      <stop offset="0" stop-color="#0070d9"/>
      <stop offset=".5" stop-color="#b7d3f2"/>
      <stop offset="1" stop-color="#0070d9"/>
    </linearGradient>
    <linearGradient id="linear-gradient-5" x1="138.24" y1="152.11" x2="166.39" y2="200.02" xlink:href="#linear-gradient-2"/>
    <linearGradient id="linear-gradient-6" x1="123.19" y1="153.52" x2="145.39" y2="207.11" xlink:href="#linear-gradient-2"/>
    <radialGradient id="radial-gradient" cx="117.43" cy="139.18" fx="117.43" fy="139.18" r="23.42" gradientTransform="translate(788.29 27.58) rotate(90.5) scale(1 4.81)" gradientUnits="userSpaceOnUse">
      <stop offset="0" stop-color="#d9eafa"/>
      <stop offset=".31" stop-color="#d6e8f9"/>
      <stop offset=".46" stop-color="#cfe4f8"/>
      <stop offset=".56" stop-color="#c2ddf6"/>
      <stop offset=".66" stop-color="#b0d3f3"/>
      <stop offset=".74" stop-color="#98c5f0"/>
      <stop offset=".81" stop-color="#7bb5eb"/>
      <stop offset=".88" stop-color="#58a1e6"/>
      <stop offset=".94" stop-color="#308be0"/>
      <stop offset=".99" stop-color="#0472d9"/>
      <stop offset="1" stop-color="#0070d9"/>
    </radialGradient>
    <linearGradient id="linear-gradient-7" x1="69.43" y1="150.9" x2="171.73" y2="107.01" gradientUnits="userSpaceOnUse">
      <stop offset="0" stop-color="#0070d9"/>
      <stop offset=".49" stop-color="#d9eafa"/>
      <stop offset=".68" stop-color="#d7e8f9"/>
      <stop offset=".75" stop-color="#d0e5f8"/>
      <stop offset=".8" stop-color="#c4def6"/>
      <stop offset=".84" stop-color="#b3d4f4"/>
      <stop offset=".88" stop-color="#9cc8f0"/>
      <stop offset=".91" stop-color="#81b8ec"/>
      <stop offset=".94" stop-color="#60a6e7"/>
      <stop offset=".97" stop-color="#3a90e1"/>
      <stop offset=".99" stop-color="#1079db"/>
      <stop offset="1" stop-color="#0070d9"/>
    </linearGradient>
    <linearGradient id="linear-gradient-8" x1="217.49" y1="35.56" x2="157.21" y2="65.1" gradientUnits="userSpaceOnUse">
      <stop offset="0" stop-color="#d9eafa"/>
      <stop offset=".37" stop-color="#d7e8f9"/>
      <stop offset=".51" stop-color="#d0e5f8"/>
      <stop offset=".61" stop-color="#c4def6"/>
      <stop offset=".69" stop-color="#b3d4f4"/>
      <stop offset=".76" stop-color="#9cc8f0"/>
      <stop offset=".83" stop-color="#81b8ec"/>
      <stop offset=".88" stop-color="#60a6e7"/>
      <stop offset=".94" stop-color="#3a90e1"/>
      <stop offset=".98" stop-color="#1079db"/>
      <stop offset="1" stop-color="#0070d9"/>
    </linearGradient>
    <linearGradient id="linear-gradient-9" x1="30.07" y1="41.31" x2="67.35" y2="59.21" xlink:href="#linear-gradient-8"/>
    <linearGradient id="linear-gradient-10" x1="167.42" y1="33.9" x2="161.15" y2="90.99" xlink:href="#linear-gradient-8"/>
    <linearGradient id="linear-gradient-11" x1="70.72" y1="36.48" x2="71.05" y2="84.99" xlink:href="#linear-gradient-8"/>
    <radialGradient id="radial-gradient-2" cx="161.43" cy="39.52" fx="161.43" fy="39.52" r="71.98" gradientTransform="translate(249.63 192.14) rotate(-143.7) scale(1 1.79)" gradientUnits="userSpaceOnUse">
      <stop offset="0" stop-color="#d9eafa"/>
      <stop offset=".37" stop-color="#d7e8f9"/>
      <stop offset=".51" stop-color="#d0e5f8"/>
      <stop offset=".61" stop-color="#c4def6"/>
      <stop offset=".69" stop-color="#b3d4f4"/>
      <stop offset=".76" stop-color="#9cc8f0"/>
      <stop offset=".83" stop-color="#81b8ec"/>
      <stop offset=".88" stop-color="#60a6e7"/>
      <stop offset=".94" stop-color="#3a90e1"/>
      <stop offset=".98" stop-color="#1079db"/>
      <stop offset="1" stop-color="#0070d9"/>
    </radialGradient>
    <linearGradient id="linear-gradient-12" x1="75.58" y1="129.9" x2="169.15" y2="36.33" gradientUnits="userSpaceOnUse">
      <stop offset="0" stop-color="#0070d9"/>
      <stop offset=".5" stop-color="#d9eafa"/>
      <stop offset="1" stop-color="#0070d9"/>
    </linearGradient>
  </defs>
  <path class="cls-12" d="M81.43,148.1c-.58,3.81-.91,7.66-1,11.51-.05,1.93-.04,3.86,0,5.79.07,1.93.19,3.86.35,5.78.63,7.7,2.12,15.33,4.36,22.71.54,1.85,1.18,3.67,1.8,5.5.69,1.8,1.34,3.61,2.1,5.38.72,1.78,1.55,3.52,2.35,5.27.86,1.72,1.59,3.5,2.84,5.03,2.4,3.12,6.29,5.31,8.33,8.4,1.08,1.53,1.9,3.2,2.44,5.08.25.95.45,1.95.53,3.03.07,1.09.1,2.23-.16,3.59l-.05.29c-.64,3.36-3.88,5.56-7.24,4.92h-.05c-1.38-.29-2.52-.76-3.54-1.33-1.02-.56-1.94-1.22-2.75-1.94-.81-.72-1.54-1.51-2.16-2.37-.64-.84-1.18-1.75-1.64-2.7-1.97-3.76-1.8-8.6-2.82-12.65-.47-2.05-1.34-3.91-2.05-5.84-.7-1.93-1.4-3.86-2.03-5.81-1.3-3.89-2.44-7.82-3.42-11.79-2.01-7.92-3.37-15.98-4.23-24.1-.81-8.12-1.08-16.29-.94-24.51v-.02c.04-2.49,2.1-4.48,4.59-4.43,2.49.04,4.48,2.1,4.43,4.59,0,.19-.02.41-.05.6Z"/>
  <path class="cls-10" d="M107.51,214.44c-1.19,0-2.35-.61-3.01-1.7-4.93-8.24-8.75-17.07-11.36-26.25-3.6-12.66-4.88-25.79-3.81-39.04.16-1.93,1.83-3.37,3.77-3.21,1.93.16,3.36,1.84,3.21,3.77-1.01,12.4.19,24.7,3.56,36.55,2.45,8.59,6.02,16.86,10.64,24.58.99,1.66.45,3.81-1.21,4.8-.56.34-1.18.5-1.79.5Z"/>
  <path class="cls-9" d="M127.45,211.49c-1.12,0-2.23-.54-2.9-1.54-6.36-9.41-11.24-19.69-14.53-30.55-3.1-10.26-4.72-20.91-4.82-31.64-.02-1.93,1.54-3.51,3.47-3.53h.03c1.92,0,3.48,1.55,3.5,3.47.09,10.07,1.61,20.05,4.52,29.68,3.08,10.19,7.66,19.83,13.62,28.65,1.08,1.6.66,3.78-.94,4.86-.6.41-1.28.6-1.96.6Z"/>
  <path class="cls-8" d="M160.82,147.44c-.03,2.11.14,4.24.58,6.32.47,2.07,1.14,4.1,2.07,6.01,1.84,3.82,4.72,7.12,8.24,9.26,3.53,2.17,7.69,2.94,11.83,2.3,2.07-.3,4.13-.92,6.09-1.8.48-.22.99-.45,1.46-.71l1.38-.77c.46-.25.88-.59,1.32-.88l.65-.45.61-.51c3.3-2.66,5.87-6.26,7.83-10.22,1-1.97,1.79-4.08,2.5-6.2.7-2.13,1.39-4.31,1.51-6.62.16-2.3-.24-4.72-.73-7.08-.47-2.36-1.03-4.68-1.17-6.92-.13-2.24-.1-4.45.61-6.63.36-1.1.87-2.19,1.59-3.29.72-1.09,1.63-2.25,3.01-3.32l.89-.69c2.46-1.91,5.89-1.71,8.11.34,1.45,1.34,2.36,2.59,3.05,3.91.67,1.3,1.12,2.62,1.35,3.93.48,2.62.12,5.22-.54,7.77-1.32,5.12-4.96,9.74-7.09,14.41-1.15,2.33-1.84,4.77-2.89,7.13-1.01,2.36-2.15,4.69-3.48,6.93-1.32,2.25-2.79,4.44-4.54,6.44-1.73,2.01-3.63,3.93-5.82,5.51-4.37,3.25-9.38,5.32-14.77,6.11-2.69.37-5.49.34-8.23-.14-2.73-.54-5.39-1.46-7.78-2.84-4.8-2.73-8.67-6.8-11.39-11.44-1.35-2.33-2.5-4.79-3.36-7.35-.82-2.57-1.44-5.2-1.84-7.9-.37-2.47,1.33-4.76,3.8-5.13,2.47-.37,4.76,1.33,5.13,3.8.03.23.05.47.05.7v.04Z"/>
  <path class="cls-5" d="M167.41,199.58c-.6,0-1.2-.15-1.76-.48-5.69-3.31-13.78-9.36-20.02-19.4-7.52-12.09-8.87-24.11-8.68-32.06.05-1.93,1.62-3.46,3.58-3.41,1.93.05,3.46,1.65,3.41,3.58-.17,7,1.01,17.57,7.62,28.2,5.48,8.81,12.6,14.13,17.6,17.04,1.67.97,2.24,3.11,1.26,4.79-.65,1.12-1.82,1.74-3.03,1.74Z"/>
  <path class="cls-6" d="M147.2,206.28c-.82,0-1.65-.29-2.31-.88-5.64-4.97-10.4-10.73-14.14-17.11-8.95-15.23-10.2-30.56-9.67-40.74.1-1.93,1.72-3.43,3.68-3.31,1.93.1,3.41,1.75,3.31,3.68-.48,9.22.64,23.1,8.71,36.83,3.37,5.74,7.66,10.92,12.74,15.41,1.45,1.28,1.59,3.49.31,4.94-.69.78-1.66,1.18-2.62,1.18Z"/>
  <path class="cls-11" d="M151,150.73h-65.29c-9.67,0-17.5-7.84-17.5-17.5v-17.49h100.29v17.49c0,9.67-7.84,17.5-17.5,17.5Z"/>
  <path class="cls-4" d="M168.5,115.74v17.49c0,9.67-7.83,17.5-17.5,17.5h-65.29c-9.67,0-17.5-7.84-17.5-17.5v-17.49h100.29M170.5,113.74h-104.29v19.49c0,10.75,8.75,19.5,19.5,19.5h65.29c10.75,0,19.5-8.75,19.5-19.5v-19.49h0Z"/>
  <path class="cls-2" d="M46.76,62.34c-6.3,4.24-6.54,13.41-.49,17.99l12.44,9.39c3.93-19.91,14.09-38.9,29.4-55.2l-41.35,27.82Z"/>
  <path class="cls-3" d="M189.95,62.34l-41.35-27.83c15.31,16.3,25.47,35.29,29.4,55.2l12.44-9.39c6.06-4.57,5.81-13.75-.49-17.99Z"/>
  <circle cx="149.62" cy="132.52" r="8.4"/>
  <circle cx="149.62" cy="132.52" r="4.62"/>
  <circle class="cls-15" cx="152.88" cy="129.93" r="2.08"/>
  <circle cx="88.1" cy="132.52" r="8.4"/>
  <circle cx="88.1" cy="132.52" r="4.62"/>
  <circle class="cls-15" cx="91.33" cy="129.93" r="2.08"/>
  <path class="cls-7" d="M46.76,62.34c-6.3,4.24-6.54,13.41-.49,17.99l12.44,9.39c3.93-19.91,14.09-38.9,29.4-55.2l-41.35,27.82Z"/>
  <path class="cls-16" d="M148.6,34.52l41.35,27.83c6.3,4.24,6.54,13.41.49,17.99l-12.44,9.39c-3.93-19.91-14.09-38.9-29.4-55.2M134.99,22.94l12.16,12.94c15.07,16.04,25.06,34.79,28.89,54.22l.62,3.13,2.55-1.92,12.44-9.39c3.41-2.57,5.3-6.5,5.18-10.77-.12-4.27-2.21-8.09-5.76-10.47l-41.35-27.83-14.73-9.91h0Z"/>
  <path class="cls-17" d="M88.1,34.52c-15.31,16.3-25.46,35.29-29.4,55.2l-12.44-9.39c-6.06-4.57-5.81-13.75.49-17.99l41.35-27.82M101.71,22.95l-14.73,9.91-41.35,27.82c-3.54,2.38-5.64,6.2-5.76,10.47-.12,4.27,1.77,8.2,5.18,10.77l12.44,9.39,2.55,1.92.62-3.13c3.84-19.43,13.83-38.18,28.89-54.22l12.15-12.94h0Z"/>
  <path class="cls-14" d="M228.59,130.93c-.13,0-.27-.03-.4-.08-.51-.22-.74-.81-.52-1.32.6-1.37,1.22-3.55.83-6.2-.45-3.07-2.07-5.16-2.99-6.14-.38-.4-.36-1.03.04-1.41.4-.38,1.03-.36,1.41.04,1.08,1.15,2.98,3.61,3.51,7.22.46,3.12-.28,5.69-.97,7.29-.16.38-.53.6-.92.6Z"/>
  <path class="cls-14" d="M234.54,127.43c-.07,0-.14,0-.22-.02-.54-.12-.88-.65-.76-1.19.33-1.49.35-2.99.05-4.48-.25-1.23-.71-2.4-1.37-3.48-.29-.47-.14-1.09.33-1.37.47-.29,1.09-.14,1.38.33.78,1.28,1.33,2.67,1.62,4.13.35,1.76.34,3.54-.06,5.3-.1.47-.52.78-.98.78Z"/>
  <path class="cls-14" d="M201.26,140.16c-.32,0-.63-.15-.82-.43-1.22-1.75-2.05-3.77-2.41-5.86-.51-3,.03-5.55.58-7.15.18-.52.75-.8,1.27-.62.52.18.8.75.62,1.27-.47,1.38-.94,3.58-.5,6.17.31,1.8,1.03,3.54,2.08,5.05.32.45.21,1.08-.25,1.39-.17.12-.37.18-.57.18Z"/>
  <path class="cls-14" d="M195.07,139.43c-.31,0-.62-.14-.81-.41-.72-.99-1.63-2.64-1.9-4.83-.19-1.6,0-3.25.55-4.78.19-.52.77-.78,1.28-.6.52.19.79.76.6,1.28-.45,1.23-.6,2.56-.45,3.85.21,1.77.95,3.1,1.53,3.9.32.45.22,1.07-.22,1.4-.18.13-.38.19-.59.19Z"/>
  <path class="cls-13" d="M105.59,134.13c.37,1.22,1.2,3.33,3.12,5.19,3.66,3.55,8.42,3.4,9.64,3.4,6.8,0,10.96-3.36,12.32-6.96-2.99.7-7.24,1.36-12.32,1.07-5.41-.31-9.78-1.58-12.76-2.7Z"/>
  <path class="cls-20" d="M179.71,103.24c-1.8-33.8-21.66-66.17-54.59-88.79-4.07-2.8-9.46-2.8-13.53,0-32.92,22.62-52.78,54.99-54.59,88.79-.36,6.81,5.17,12.5,11.99,12.5h98.72c6.82,0,12.35-5.68,11.99-12.5Z"/>
  <path class="cls-1" d="M179.71,103.24c-1.8-33.8-21.66-66.17-54.59-88.79-4.07-2.8-9.46-2.8-13.53,0-32.92,22.62-52.78,54.99-54.59,88.79-.36,6.81,5.17,12.5,11.99,12.5h98.72c6.82,0,12.35-5.68,11.99-12.5Z"/>
  <path class="cls-18" d="M118.35,12.35c2.37,0,4.73.7,6.77,2.1,32.92,22.63,52.78,55,54.59,88.79.36,6.81-5.17,12.5-11.99,12.5h-98.72c-6.82,0-12.35-5.68-11.99-12.5,1.81-33.8,21.67-66.17,54.59-88.79,2.03-1.4,4.4-2.1,6.77-2.1M118.35,10.35c-2.84,0-5.57.85-7.9,2.45-33.4,22.95-53.61,55.88-55.45,90.34-.2,3.8,1.14,7.43,3.78,10.21,2.65,2.79,6.37,4.39,10.21,4.39h98.72c3.84,0,7.57-1.6,10.21-4.39,2.64-2.78,3.98-6.41,3.78-10.21-1.84-34.45-22.05-67.38-55.45-90.34-2.33-1.6-5.06-2.45-7.9-2.45h0Z"/>
  <circle class="cls-20" cx="135.69" cy="56.68" r="9.57"/>
  <circle class="cls-20" cx="150.17" cy="71.03" r="4.79"/>
  <circle class="cls-20" cx="184.7" cy="70.64" r="2.97"/>
  <circle class="cls-20" cx="136.79" cy="80" r="2.86"/>
  <circle class="cls-20" cx="75.28" cy="132.52" r="2.86"/>
  <circle class="cls-20" cx="163.05" cy="132.52" r="2.86"/>
  <circle class="cls-19" cx="159.88" cy="141.2" r="2.86"/>
  <circle class="cls-19" cx="78.14" cy="140.1" r="2.86"/>
  <circle class="cls-2" cx="59.79" cy="60.31" r="2.67"/>
  <circle class="cls-2" cx="49.09" cy="68.92" r="2.67"/>
</svg>