<svg xmlns="http://www.w3.org/2000/svg" width="24" height="24" viewBox="0 0 24 24"><path fill="#B59E58" d="M23 12c0 1.042-.154 2.045-.425 3h-2.101c.335-.94.526-1.947.526-3 0-4.962-4.037-9-9-9-1.706 0-3.296.484-4.654 1.314l1.857 2.686h-6.994l2.152-7 1.85 2.673c1.683-1.049 3.658-1.673 5.789-1.673 6.074 0 11 4.925 11 11zm-6.354 7.692c-1.357.826-2.944 1.308-4.646 1.308-4.963 0-9-4.038-9-9 0-1.053.191-2.06.525-3h-2.1c-.271.955-.425 1.958-.425 3 0 6.075 4.925 11 11 11 2.127 0 4.099-.621 5.78-1.667l1.853 2.667 2.152-6.989h-6.994l1.855 2.681zm-3.646-7.692v-6h-2v8h7v-2h-5z"/></svg>