<svg width="544" height="541" viewBox="0 0 544 541" fill="none" xmlns="http://www.w3.org/2000/svg">
<path d="M0 111.17C0 91.1221 16.2523 74.8698 36.3006 74.8698H507.698C527.746 74.8698 543.999 91.1221 543.999 111.17V504.295C543.999 524.343 527.746 540.595 507.698 540.595H36.3006C16.2523 540.595 0 524.343 0 504.295V111.17Z" fill="#D3121D"/>
<path d="M183.771 462.833L144.067 462.833C119.007 462.833 98.6914 442.517 98.6915 417.457L98.6917 232.881L98.6917 149.74" stroke="white" stroke-width="4"/>
<g clip-path="url(#clip0_44750_23930)">
<mask id="path-3-inside-1_44750_23930" fill="white">
<path d="M186.555 232.607C186.555 222.583 194.681 214.457 204.705 214.457H544.002V540.595H186.555V232.607Z"/>
</mask>
<rect x="184.281" y="214.457" width="526.828" height="345.026" fill="white" fill-opacity="0.4"/>
<rect x="190.254" y="275.5" width="514.885" height="268.722" fill="white" fill-opacity="0.4"/>
<rect x="184.281" y="225.073" width="526.828" height="12.6067" fill="white" fill-opacity="0.4"/>
<path d="M368.738 264.884C368.738 263.418 369.927 262.23 371.392 262.23H524.663C526.129 262.23 527.317 263.418 527.317 264.884V275.5H368.738V264.884Z" fill="white" fill-opacity="0.4"/>
<path d="M190.254 264.884C190.254 263.418 191.442 262.23 192.908 262.23H245.325C246.791 262.23 247.979 263.418 247.979 264.884V275.5H190.254V264.884Z" fill="white" fill-opacity="0.4"/>
<rect x="364.758" y="262.23" width="3.98107" height="281.992" fill="white" fill-opacity="0.4"/>
<rect x="397.934" y="290.098" width="18.5783" height="7.29862" rx="3.64931" fill="white"/>
<rect x="397.934" y="301.377" width="50.4269" height="7.29862" rx="3.64931" fill="white"/>
<rect x="453.004" y="301.377" width="50.4269" height="7.29862" rx="3.64931" fill="white"/>
<rect x="397.934" y="312.656" width="149.954" height="7.29862" rx="3.64931" fill="white" fill-opacity="0.4"/>
<rect x="217.457" y="290.098" width="62.3701" height="7.29862" rx="3.64931" fill="white" fill-opacity="0.4"/>
<rect x="241.012" y="301.377" width="31.8485" height="7.29862" rx="3.64931" fill="white" fill-opacity="0.4"/>
<rect x="241.344" y="312.656" width="41.1377" height="7.29862" rx="3.64931" fill="white" fill-opacity="0.4"/>
<rect x="241.012" y="323.937" width="31.8485" height="7.29862" rx="3.64931" fill="white" fill-opacity="0.4"/>
<rect x="261.91" y="335.216" width="48.4363" height="7.29862" rx="3.64931" fill="white" fill-opacity="0.4"/>
<rect x="261.91" y="346.496" width="65.0241" height="7.29862" rx="3.64931" fill="white" fill-opacity="0.4"/>
<rect x="261.91" y="357.776" width="37.1566" height="7.29862" rx="3.64931" fill="white" fill-opacity="0.4"/>
<rect x="241.344" y="369.055" width="41.1377" height="7.29862" rx="3.64931" fill="white" fill-opacity="0.4"/>
<rect x="241.344" y="380.334" width="49.7634" height="7.29862" rx="3.64931" fill="white" fill-opacity="0.4"/>
<rect x="217.125" y="391.615" width="31.8485" height="7.29862" rx="3.64931" fill="white" fill-opacity="0.4"/>
<rect x="217.457" y="402.894" width="65.0241" height="7.29862" rx="3.64931" fill="white" fill-opacity="0.4"/>
<rect x="217.457" y="414.174" width="49.7634" height="7.29862" rx="3.64931" fill="white" fill-opacity="0.4"/>
<rect x="217.457" y="425.454" width="44.4553" height="7.29862" rx="3.64931" fill="white" fill-opacity="0.4"/>
<rect x="217.457" y="436.733" width="115.451" height="7.29862" rx="3.64931" fill="white" fill-opacity="0.4"/>
<rect x="217.457" y="448.013" width="75.6403" height="7.29862" rx="3.64931" fill="white" fill-opacity="0.4"/>
<rect x="217.457" y="459.293" width="82.9389" height="7.29862" rx="3.64931" fill="white" fill-opacity="0.4"/>
<rect x="217.457" y="470.573" width="63.6971" height="7.29862" rx="3.64931" fill="white" fill-opacity="0.4"/>
<rect x="217.457" y="481.852" width="46.4458" height="7.29862" rx="3.64931" fill="white" fill-opacity="0.4"/>
<rect x="217.457" y="493.132" width="115.451" height="7.29862" rx="3.64931" fill="white" fill-opacity="0.4"/>
<rect x="217.457" y="504.412" width="49.7634" height="7.29862" rx="3.64931" fill="white" fill-opacity="0.4"/>
<rect x="217.457" y="515.691" width="70.9957" height="7.29862" rx="3.64931" fill="white" fill-opacity="0.4"/>
<rect x="217.457" y="526.971" width="37.8201" height="7.29862" rx="3.64931" fill="white" fill-opacity="0.4"/>
<rect x="431.105" y="323.936" width="158.579" height="7.29862" rx="3.64931" fill="white" fill-opacity="0.4"/>
<rect x="431.105" y="335.216" width="116.778" height="7.29862" rx="3.64931" fill="white" fill-opacity="0.4"/>
<rect x="397.934" y="346.496" width="18.5783" height="7.29862" rx="3.64931" fill="white"/>
<rect x="421.82" y="346.496" width="49.0998" height="7.29862" rx="3.64931" fill="white"/>
<rect x="431.105" y="357.776" width="94.2186" height="7.29862" rx="3.64931" fill="white" fill-opacity="0.4"/>
<rect x="451.012" y="369.055" width="238.864" height="7.29862" rx="3.64931" fill="white" fill-opacity="0.4"/>
<rect x="451.012" y="380.334" width="218.959" height="7.29862" rx="3.64931" fill="white" fill-opacity="0.4"/>
<rect x="451.012" y="391.615" width="238.864" height="7.29862" rx="3.64931" fill="white" fill-opacity="0.4"/>
<rect x="431.105" y="402.894" width="80.2849" height="7.29862" rx="3.64931" fill="white"/>
<rect x="451.012" y="414.174" width="180.475" height="7.29862" rx="3.64931" fill="white" fill-opacity="0.4"/>
<rect x="451.012" y="425.454" width="180.475" height="7.29862" rx="3.64931" fill="white" fill-opacity="0.4"/>
<rect x="451.012" y="436.733" width="180.475" height="7.29862" rx="3.64931" fill="white" fill-opacity="0.4"/>
<rect x="431.105" y="448.013" width="80.2849" height="7.29862" rx="3.64931" fill="white" fill-opacity="0.4"/>
<rect x="397.934" y="459.293" width="57.7255" height="7.29862" rx="3.64931" fill="white"/>
<rect x="462.293" y="459.293" width="36.4931" height="7.29862" rx="3.64931" fill="white" fill-opacity="0.4"/>
<rect x="397.934" y="470.573" width="57.7255" height="7.29862" rx="3.64931" fill="white"/>
<rect x="462.293" y="470.573" width="85.593" height="7.29862" rx="3.64931" fill="white" fill-opacity="0.4"/>
<rect x="411.867" y="481.852" width="191.755" height="7.29862" rx="3.64931" fill="white" fill-opacity="0.4"/>
<rect x="451.012" y="493.132" width="210.997" height="7.29862" rx="3.64931" fill="white" fill-opacity="0.4"/>
<rect x="451.012" y="504.412" width="233.556" height="7.29862" rx="3.64931" fill="white" fill-opacity="0.4"/>
<rect x="451.012" y="515.691" width="210.997" height="7.29862" rx="3.64931" fill="white" fill-opacity="0.4"/>
<rect x="411.867" y="526.971" width="74.9768" height="7.29862" rx="3.64931" fill="white"/>
<rect x="377.363" y="290.098" width="9.28916" height="7.29862" rx="3.64931" fill="white" fill-opacity="0.4"/>
<rect x="377.363" y="301.377" width="9.28916" height="7.29862" rx="3.64931" fill="white" fill-opacity="0.4"/>
<rect x="377.363" y="312.657" width="9.28916" height="7.29862" rx="3.64931" fill="white" fill-opacity="0.4"/>
<rect x="377.363" y="323.937" width="9.28916" height="7.29862" rx="3.64931" fill="white" fill-opacity="0.4"/>
<rect x="377.363" y="335.216" width="9.28916" height="7.29862" rx="3.64931" fill="white" fill-opacity="0.4"/>
<rect x="377.363" y="346.496" width="9.28916" height="7.29862" rx="3.64931" fill="white" fill-opacity="0.4"/>
<rect x="377.363" y="357.776" width="9.28916" height="7.29862" rx="3.64931" fill="white" fill-opacity="0.4"/>
<rect x="377.363" y="369.055" width="9.28916" height="7.29862" rx="3.64931" fill="white" fill-opacity="0.4"/>
<rect x="377.363" y="380.335" width="9.28916" height="7.29862" rx="3.64931" fill="white" fill-opacity="0.4"/>
<rect x="377.363" y="391.615" width="9.28916" height="7.29862" rx="3.64931" fill="white" fill-opacity="0.4"/>
<rect x="377.363" y="402.894" width="9.28916" height="7.29862" rx="3.64931" fill="white" fill-opacity="0.4"/>
<rect x="377.363" y="414.174" width="9.28916" height="7.29862" rx="3.64931" fill="white" fill-opacity="0.4"/>
<rect x="377.363" y="425.454" width="9.28916" height="7.29862" rx="3.64931" fill="white" fill-opacity="0.4"/>
<rect x="377.363" y="436.733" width="9.28916" height="7.29862" rx="3.64931" fill="white" fill-opacity="0.4"/>
<rect x="377.363" y="448.013" width="9.28916" height="7.29862" rx="3.64931" fill="white" fill-opacity="0.4"/>
<rect x="377.363" y="459.293" width="9.28916" height="7.29862" rx="3.64931" fill="white" fill-opacity="0.4"/>
<rect x="377.363" y="470.573" width="9.28916" height="7.29862" rx="3.64931" fill="white" fill-opacity="0.4"/>
<rect x="377.363" y="481.852" width="9.28916" height="7.29862" rx="3.64931" fill="white" fill-opacity="0.4"/>
<rect x="377.363" y="493.132" width="9.28916" height="7.29862" rx="3.64931" fill="white" fill-opacity="0.4"/>
<rect x="377.363" y="504.412" width="9.28916" height="7.29862" rx="3.64931" fill="white" fill-opacity="0.4"/>
<rect x="377.363" y="515.691" width="9.28916" height="7.29862" rx="3.64931" fill="white" fill-opacity="0.4"/>
<rect x="377.363" y="526.971" width="9.28916" height="7.29862" rx="3.64931" fill="white" fill-opacity="0.4"/>
<rect x="204.52" y="290.098" width="7.29862" height="7.29862" fill="white"/>
<rect x="228.402" y="301.377" width="7.29862" height="7.29862" fill="white"/>
<rect x="195.562" y="242.987" width="9.28916" height="9.28916" fill="white" fill-opacity="0.4"/>
<rect x="220.777" y="242.987" width="9.28916" height="9.28916" fill="white" fill-opacity="0.4"/>
<rect x="245.984" y="242.987" width="9.28916" height="9.28916" fill="white" fill-opacity="0.4"/>
<rect x="271.203" y="242.987" width="9.28916" height="9.28916" fill="white" fill-opacity="0.4"/>
<rect x="296.414" y="242.987" width="9.28916" height="9.28916" fill="white" fill-opacity="0.4"/>
<rect x="321.629" y="242.987" width="9.28916" height="9.28916" fill="white" fill-opacity="0.4"/>
<rect x="346.84" y="242.987" width="9.28916" height="9.28916" fill="white" fill-opacity="0.4"/>
<rect x="372.055" y="242.987" width="9.28916" height="9.28916" fill="white" fill-opacity="0.4"/>
<rect x="397.27" y="242.987" width="9.28916" height="9.28916" fill="white" fill-opacity="0.4"/>
<rect x="422.48" y="242.987" width="9.28916" height="9.28916" fill="white" fill-opacity="0.4"/>
<rect x="447.695" y="242.987" width="9.28916" height="9.28916" fill="white" fill-opacity="0.4"/>
<rect x="472.91" y="242.987" width="9.28916" height="9.28916" fill="white" fill-opacity="0.4"/>
<rect x="498.121" y="242.987" width="9.28916" height="9.28916" fill="white" fill-opacity="0.4"/>
<rect x="523.336" y="242.987" width="9.28916" height="9.28916" fill="white" fill-opacity="0.4"/>
<rect x="228.402" y="312.656" width="7.29862" height="7.29862" fill="white"/>
<rect x="228.402" y="323.936" width="7.29862" height="7.29862" fill="white"/>
<rect x="249.305" y="335.216" width="7.29862" height="7.29862" rx="3.64931" fill="white"/>
<rect x="249.305" y="346.496" width="7.29862" height="7.29862" rx="3.64931" fill="white"/>
<rect x="249.305" y="357.776" width="7.29862" height="7.29862" rx="3.64931" fill="white"/>
<rect x="228.402" y="369.055" width="7.29862" height="7.29862" fill="white"/>
<rect x="228.402" y="380.334" width="7.29862" height="7.29862" rx="3.64931" fill="white"/>
<rect x="204.52" y="391.615" width="7.29862" height="7.29862" fill="white"/>
<rect x="204.52" y="402.894" width="7.29862" height="7.29862" fill="white"/>
<rect x="204.52" y="414.174" width="7.29862" height="7.29862" fill="white"/>
<rect x="204.52" y="425.454" width="7.29862" height="7.29862" fill="white"/>
<rect x="204.52" y="436.733" width="7.29862" height="7.29862" fill="white"/>
<rect x="204.52" y="448.013" width="7.29862" height="7.29862" fill="white"/>
<rect x="204.52" y="459.293" width="7.29862" height="7.29862" fill="white"/>
<rect x="204.52" y="470.573" width="7.29862" height="7.29862" fill="white"/>
<rect x="204.52" y="481.852" width="7.29862" height="7.29862" fill="white"/>
<rect x="204.52" y="493.132" width="7.29862" height="7.29862" fill="white"/>
<rect x="204.52" y="504.412" width="7.29862" height="7.29862" fill="white"/>
<rect x="204.52" y="515.691" width="7.29862" height="7.29862" fill="white"/>
<rect x="204.52" y="526.971" width="7.29862" height="7.29862" fill="white"/>
<path d="M200.207 291.092L196.889 294.41L193.572 291.092H196.889H200.207Z" fill="white" fill-opacity="0.4"/>
<path d="M220.777 301.708L224.095 305.026L220.777 308.344V305.026V301.708Z" fill="white" fill-opacity="0.4"/>
<path d="M220.777 312.988L224.095 316.306L220.777 319.623V316.306V312.988Z" fill="white" fill-opacity="0.4"/>
<path d="M225.418 326.259L222.1 329.576L218.783 326.259H222.1H225.418Z" fill="white" fill-opacity="0.4"/>
<path d="M220.777 369.387L224.095 372.704L220.777 376.022V372.704V369.387Z" fill="white" fill-opacity="0.4"/>
<path d="M196.887 391.947L200.204 395.264L196.887 398.582V395.264V391.947Z" fill="white" fill-opacity="0.4"/>
<path d="M196.887 403.226L200.204 406.544L196.887 409.862V406.544V403.226Z" fill="white" fill-opacity="0.4"/>
<path d="M196.887 414.506L200.204 417.824L196.887 421.141V417.824V414.506Z" fill="white" fill-opacity="0.4"/>
<path d="M196.887 425.785L200.204 429.103L196.887 432.42V429.103V425.785Z" fill="white" fill-opacity="0.4"/>
<path d="M196.887 437.065L200.204 440.382L196.887 443.7V440.382V437.065Z" fill="white" fill-opacity="0.4"/>
<path d="M196.887 448.345L200.204 451.663L196.887 454.98V451.663V448.345Z" fill="white" fill-opacity="0.4"/>
<path d="M196.887 459.625L200.204 462.942L196.887 466.26V462.942V459.625Z" fill="white" fill-opacity="0.4"/>
<path d="M196.887 470.904L200.204 474.222L196.887 477.54V474.222V470.904Z" fill="white" fill-opacity="0.4"/>
<path d="M196.887 482.184L200.204 485.502L196.887 488.819V485.502V482.184Z" fill="white" fill-opacity="0.4"/>
<path d="M196.887 493.464L200.204 496.781L196.887 500.099V496.781V493.464Z" fill="white" fill-opacity="0.4"/>
<path d="M196.887 504.743L200.204 508.06L196.887 511.378V508.06V504.743Z" fill="white" fill-opacity="0.4"/>
<path d="M196.887 516.023L200.204 519.341L196.887 522.658V519.341V516.023Z" fill="white" fill-opacity="0.4"/>
<path d="M196.887 527.303L200.204 530.62L196.887 533.938V530.62V527.303Z" fill="white" fill-opacity="0.4"/>
<path d="M212.812 240.998L212.813 254.268" stroke="white" stroke-opacity="0.4" stroke-width="1.32702"/>
<path d="M289.113 240.998L289.113 254.268" stroke="white" stroke-opacity="0.4" stroke-width="1.32702"/>
<path d="M313.664 240.998L313.664 254.268" stroke="white" stroke-opacity="0.4" stroke-width="1.32702"/>
<path d="M338.219 240.997L338.219 254.268" stroke="white" stroke-opacity="0.4" stroke-width="1.32702"/>
<path d="M362.766 240.997L362.766 254.268" stroke="white" stroke-opacity="0.4" stroke-width="1.32702"/>
<path d="M440.398 240.998L440.398 254.268" stroke="white" stroke-opacity="0.4" stroke-width="1.32702"/>
<path d="M541.254 240.998L541.254 254.268" stroke="white" stroke-opacity="0.4" stroke-width="1.32702"/>
</g>
<path d="M182.555 232.607C182.555 220.374 192.472 210.457 204.705 210.457H544.002V218.457H204.705C196.89 218.457 190.555 224.792 190.555 232.607H182.555ZM544.002 540.595H186.555H544.002ZM182.555 540.595V232.607C182.555 220.374 192.472 210.457 204.705 210.457V218.457C196.89 218.457 190.555 224.792 190.555 232.607V540.595H182.555ZM544.002 214.457V540.595V214.457Z" fill="#290042" mask="url(#path-3-inside-1_44750_23930)"/>
<rect x="28.0898" y="2" width="146.676" height="146.676" rx="16.1503" fill="white" stroke="#290042" stroke-width="4"/>
<rect x="66.2695" y="64.9783" width="65.7495" height="50.721" rx="3.75711" fill="#126ED3"/>
<path d="M100.082 36.7993C110.457 36.7995 118.867 45.2106 118.867 55.5854V83.7632H81.2959V55.5854C81.2959 45.2105 89.7071 36.7993 100.082 36.7993Z" stroke="#126ED3" stroke-width="7.51423"/>
<circle cx="101.028" cy="86.5834" r="8.45351" fill="white"/>
<line x1="101.033" y1="87.52" x2="101.033" y2="102.548" stroke="white" stroke-width="5.63567"/>
<path d="M183.773 387.962L133.86 387.962C114.438 387.962 98.6939 372.218 98.6939 352.796L98.6939 335.78" stroke="white" stroke-width="4" stroke-dasharray="6.81 6.81"/>
<path d="M183.773 314.227L133.86 314.227C114.438 314.227 98.6939 298.483 98.6939 279.061L98.6939 262.045" stroke="white" stroke-width="4" stroke-dasharray="6.81 6.81"/>
<defs>
<clipPath id="clip0_44750_23930">
<path d="M186.555 232.607C186.555 222.583 194.681 214.457 204.705 214.457H544.002V540.595H186.555V232.607Z" fill="white"/>
</clipPath>
</defs>
</svg>
