<?xml version="1.0" encoding="UTF-8"?>
<svg id="Layer_1" xmlns="http://www.w3.org/2000/svg" viewBox="0 0 512 512">
  <path d="M493.58,272.42c-9.07,0-16.42-7.36-16.42-16.42,0-121.95-99.21-221.15-221.16-221.15-9.07,0-16.42-7.36-16.42-16.42s7.36-16.42,16.42-16.42c140.06,0,254.01,113.94,254.01,253.99,0,9.07-7.36,16.42-16.42,16.42Z" fill="#126ed3"/>
  <path d="M255.99,509.99C115.94,509.99,2,396.06,2,256c0-9.07,7.36-16.42,16.42-16.42s16.42,7.36,16.42,16.42c0,121.95,99.2,221.15,221.15,221.15,9.07,0,16.42,7.36,16.42,16.42s-7.36,16.42-16.42,16.42Z" fill="#126ed3"/>
  <path d="M327.27,272.42c-9.07,0-16.42-7.36-16.42-16.42,0-30.24-24.6-54.84-54.85-54.84-9.07,0-16.42-7.36-16.42-16.42s7.36-16.42,16.42-16.42c48.36,0,87.7,39.34,87.7,87.69,0,9.07-7.36,16.42-16.42,16.42Z" fill="#126ed3"/>
  <path d="M255.99,343.7c-48.35,0-87.69-39.34-87.69-87.7,0-9.07,7.36-16.42,16.42-16.42s16.42,7.36,16.42,16.42c0,30.25,24.6,54.85,54.84,54.85,9.07,0,16.42,7.36,16.42,16.42s-7.36,16.42-16.42,16.42Z" fill="#126ed3"/>
  <path d="M410.42,272.42c-9.07,0-16.42-7.36-16.42-16.42,0-76.09-61.91-137.99-138.01-137.99-9.07,0-16.42-7.36-16.42-16.42s7.36-16.42,16.42-16.42c94.21,0,170.85,76.64,170.85,170.84,0,9.07-7.36,16.42-16.42,16.42Z" fill="#126ed3"/>
  <path d="M255.99,426.85c-94.2,0-170.84-76.64-170.84-170.85,0-9.07,7.36-16.42,16.42-16.42s16.42,7.36,16.42,16.42c0,76.1,61.91,138.01,137.99,138.01,9.07,0,16.42,7.36,16.42,16.42s-7.36,16.42-16.42,16.42Z" fill="#126ed3"/>
</svg>