<?xml version="1.0" encoding="utf-8"?>
<!-- Generator: Adobe Illustrator 21.1.0, SVG Export Plug-In . SVG Version: 6.00 Build 0)  -->
<svg version="1.1" id="Calque_1" xmlns="http://www.w3.org/2000/svg" xmlns:xlink="http://www.w3.org/1999/xlink" x="0px" y="0px"
	 viewBox="0 0 110.3 110.3" style="enable-background:new 0 0 110.3 110.3;" xml:space="preserve">
<style type="text/css">
	.st0{fill:#CB2027;}
	.st1{fill-rule:evenodd;clip-rule:evenodd;fill:#CB2027;}
</style>
<path class="st0" d="M54.9,107.2C26.3,107.2,3.1,84,3.1,55.5C3.1,27,26.3,3.7,54.9,3.7c28.6,0,51.8,23.2,51.8,51.7
	C106.7,84,83.4,107.2,54.9,107.2z M54.9,13.1c-23.4,0-42.4,19-42.4,42.3s19,42.3,42.4,42.3s42.4-19,42.4-42.3S78.3,13.1,54.9,13.1z"
	/>
<path class="st1" d="M93.1,63.5c-1.4-0.2-2.7-1.6-3.7-3.7C88,56.8,86.3,55,84.7,55c-1.7,0.1-3.3,1.8-4.8,4.8c-2.6,5.4-7.3,5.5-9.9,0
	c-2.6-5.3-7.1-5.3-9.7,0c-0.6,1.4-1.6,2.9-2.5,3.8c-0.5,0.5-1,0.9-1.5,1.2c-2.4,1.5-4.6-2.2-6-5c-2.6-5.3-7.1-5.2-9.7,0
	c-2.6,5.5-7.9,7-10.8,1c-0.1-0.9-0.4-1.8-0.6-2.6c-0.2-0.7-0.6-1.3-0.9-1.8c-2.3-3.5-5.7,0.2-7.2,3.4c-1.2,2.5-2.8,4.1-4.4,3.9
	c-0.2-0.1-0.3-0.2-0.4-0.5c-0.1-0.2-0.2-0.4-0.2-0.7c0-0.2-0.1-0.4-0.1-0.6c0-0.4-0.1-0.9-0.1-1.4c0.1-0.9,0.1-0.8,0.2-1.3
	c0.1-0.3,0.2-0.7,0.4-1c0.2-0.3,0.7-1.3,1-1.6c0.6-0.8,0.9-1.9,1.4-2.9c2.5-5.1,8.6-9.5,11.7-3.1c0.4,0.8,0.8,1.6,1.2,2.4
	c1.1,2.2,3.1,5.7,5,3.7c0.4-0.4,0.8-0.8,1.1-1.3c0.7-1.3,1.4-2.8,2.1-4.2c1.6-3.3,4.3-3.9,6.7-3.9c1.5,0,3.1,0.9,4,2.8
	c1.4,2.9,3.6,6.7,6.1,5.1c0.4-0.2,0.7-0.5,1-0.9c0.4-0.4,0.8-0.9,1.1-1.5c0.4-0.7,0.8-1.4,1.2-2.2c2.5-5.2,7.1-6,9.8-0.5
	c1.6,3.4,4.9,8.2,7.6,4.7c1-1.3,1.6-2.7,2.3-4.3c1.5-3,3.5-4.6,5.2-4.6c0,0,0,0,0,0c0.1,0,0.3,0,0.5,0.1c1.7,0.5,3.9,3.3,5.3,6.1
	c0.6,1.3,2,4.5,2.8,6c0.4,1.1,0.5,1.1,0.6,2.2c0,0.1,0,0.3,0,0.3c0,0.3,0,0.4,0,0.7c0,0.3-0.1,0.7-0.1,0.9
	C93.6,62.8,93.4,63.4,93.1,63.5z"/>
</svg>
