<?xml version="1.0" encoding="UTF-8"?>
<svg id="Layer_1" xmlns="http://www.w3.org/2000/svg" viewBox="0 0 32 32">
  <path d="M30.8,17.69c0,.78-.89,1.24-1.51.77-.68-.52-1.12-1.33-1.47-1.99-.48-.91-.81-1.45-1.24-1.45s-.76.55-1.24,1.45c-.56,1.05-1.34,2.5-2.99,2.5s-2.42-1.44-2.99-2.5c-.48-.9-.81-1.45-1.24-1.45s-.76.55-1.24,1.45c-.56,1.05-1.34,2.5-2.98,2.5s-2.42-1.44-2.99-2.5c-.48-.9-.81-1.45-1.24-1.45s-.76.55-1.24,1.45c-.56,1.05-1.34,2.5-2.98,2.5s-2.42-1.44-2.98-2.5c-.34-.63-.6-1.09-.87-1.31-.22-.17-.37-.41-.37-.68v-.16c0-.78.89-1.24,1.51-.77.68.52,1.12,1.33,1.47,1.99.48.9.81,1.45,1.24,1.45s.76-.55,1.24-1.45c.56-1.05,1.34-2.5,2.99-2.5s2.42,1.44,2.99,2.5c.48.9.81,1.45,1.24,1.45s.76-.55,1.24-1.45c.56-1.05,1.34-2.5,2.98-2.5s2.42,1.44,2.99,2.5c.48.9.81,1.45,1.24,1.45s.76-.55,1.24-1.45c.56-1.05,1.34-2.5,2.99-2.5s2.42,1.44,2.99,2.5c.34.63.6,1.09.88,1.31.22.17.37.41.37.69v.16Z" fill="#336ccb"/>
  <path d="M16.26,31.25c-3.57,0-6.96-1.22-9.69-3.49-.44-.36-.47-1.03-.08-1.44h0c.36-.38.95-.41,1.35-.08,2.47,2.04,5.55,3.11,8.79,3.02,3.23-.09,6.26-1.32,8.62-3.49.38-.35.97-.35,1.35,0h0c.41.39.41,1.06,0,1.45-2.71,2.5-6.19,3.91-9.91,4.01-.14,0-.28,0-.42,0Z" fill="#336ccb"/>
  <path d="M5.95,6.21h0c-.42-.39-.41-1.06,0-1.45C8.75,2.2,12.29.85,15.86.76c3.57-.1,7.18,1.05,10.11,3.47.44.36.48,1.03.09,1.44h0c-.36.38-.94.41-1.35.08-2.52-2.08-5.63-3.08-8.71-3.02-3.14.06-6.25,1.23-8.71,3.49-.38.35-.97.35-1.35,0Z" fill="#336ccb"/>
</svg>