<?xml version="1.0" encoding="UTF-8" standalone="no"?>
<!-- Generator: Adobe Illustrator 23.0.3, SVG Export Plug-In . SVG Version: 6.00 Build 0)  -->

<svg
   xmlns:dc="http://purl.org/dc/elements/1.1/"
   xmlns:cc="http://creativecommons.org/ns#"
   xmlns:rdf="http://www.w3.org/1999/02/22-rdf-syntax-ns#"
   xmlns:svg="http://www.w3.org/2000/svg"
   xmlns="http://www.w3.org/2000/svg"
   xmlns:xlink="http://www.w3.org/1999/xlink"
   xmlns:sodipodi="http://sodipodi.sourceforge.net/DTD/sodipodi-0.dtd"
   xmlns:inkscape="http://www.inkscape.org/namespaces/inkscape"
   version="1.1"
   id="Calque_1"
   x="0px"
   y="0px"
   viewBox="0 0 391 390.60001"
   xml:space="preserve"
   sodipodi:docname="sonarlint_icon.svg"
   width="391"
   height="390.60001"
   inkscape:version="0.92.5 (2060ec1f9f, 2020-04-08)"><metadata
   id="metadata21"><rdf:RDF><cc:Work
       rdf:about=""><dc:format>image/svg+xml</dc:format><dc:type
         rdf:resource="http://purl.org/dc/dcmitype/StillImage" /></cc:Work></rdf:RDF></metadata><defs
   id="defs19" /><sodipodi:namedview
   pagecolor="#ffffff"
   bordercolor="#666666"
   borderopacity="1"
   objecttolerance="10"
   gridtolerance="10"
   guidetolerance="10"
   inkscape:pageopacity="0"
   inkscape:pageshadow="2"
   inkscape:window-width="826"
   inkscape:window-height="480"
   id="namedview17"
   showgrid="false"
   inkscape:zoom="0.4609375"
   inkscape:cx="195.8"
   inkscape:cy="194.7"
   inkscape:window-x="1486"
   inkscape:window-y="528"
   inkscape:window-maximized="0"
   inkscape:current-layer="Calque_1" />
<style
   type="text/css"
   id="style2">
	.st0{clip-path:url(#SVGID_2_);fill:#CB2029;}
	.st1{fill:#CB2029;}
</style>
<g
   id="g12"
   transform="translate(-60.2,-60.1)">
	<defs
   id="defs5">
		<rect
   id="SVGID_1_"
   width="512"
   height="512"
   x="0"
   y="0" />
	</defs>
	<clipPath
   id="SVGID_2_">
		<use
   xlink:href="#SVGID_1_"
   style="overflow:visible"
   id="use7"
   x="0"
   y="0"
   width="100%"
   height="100%" />
	</clipPath>
	<path
   class="st0"
   d="M 255.7,450.7 C 147.9,450.7 60.2,363.1 60.2,255.4 60.2,147.7 147.9,60.1 255.7,60.1 c 107.8,0 195.5,87.6 195.5,195.3 0,107.7 -87.7,195.3 -195.5,195.3 m 0,-355.2 c -88.2,0 -160,71.7 -160,159.8 0,88.1 71.8,159.8 160,159.8 88.2,0 160,-71.7 160,-159.8 0,-88.1 -71.8,-159.8 -160,-159.8"
   clip-path="url(#SVGID_2_)"
   id="path10"
   inkscape:connector-curvature="0"
   style="fill:#cb2029" />
</g>
<path
   class="st1"
   d="m 332.4,184.8 c -5.1,-10.2 -11.5,-23 -24.1,-23 -12.5,0 -18.9,12.7 -24.1,23 -4.8,9.5 -7.5,14.5 -13.5,14.5 -6,0 -8.7,-5 -13.5,-14.5 -5.1,-10.2 -11.5,-23 -24.1,-23 -12.6,0 -18.9,12.7 -24.1,23 -4.8,9.5 -7.5,14.5 -13.5,14.5 -6,0 -8.7,-5 -13.5,-14.5 -5.1,-10.2 -11.5,-23 -24.1,-23 -12.6,0 -18.9,12.7 -24.1,23 -4.8,9.5 -7.5,14.5 -13.5,14.5 -6,0 -8.7,-5 -13.5,-14.5 -5.1,-10.2 -11.5,-23 -24.1,-23 -12.5,0 -18.9,12.1 -24,22.3 0,0 -3.9,8.7 -5.6,12.8 -1.7,4.1 -8.3,19.7 -2.3,27.2 3.4,4.2 8.3,-1.8 11.1,-6.2 2.1,-3.4 7.1,-13.2 7.1,-13.2 5.1,-9.1 7.8,-14 13.7,-14 6,0 8.7,5 13.5,14.5 5.1,10.2 11.5,23 24.1,23 12.5,0 18.9,-12.7 24.1,-23 4.8,-9.5 7.5,-14.5 13.5,-14.5 6,0 8.7,5 13.5,14.5 5.1,10.2 11.5,23 24.1,23 12.5,0 18.9,-12.7 24.1,-23 4.8,-9.5 7.5,-14.5 13.5,-14.5 6,0 8.7,5 13.5,14.5 5.1,10.2 11.5,23 24.1,23 12.6,0 18.9,-12.7 24.1,-23 4.8,-9.5 7.5,-14.5 13.5,-14.5 6,0 8.7,5 13.5,14.5 0,0 2.2,4.3 5.4,9.9 1.4,2.3 6.6,11.1 11.2,10.8 4.1,-0.3 5.6,-13.3 1,-24.7 -3.1,-7.6 -7,-16.4 -7,-16.4 z"
   id="path14"
   inkscape:connector-curvature="0"
   style="fill:#cb2029" />
</svg>