<?xml version="1.0" encoding="UTF-8"?>
<svg id="Layer_1" xmlns="http://www.w3.org/2000/svg" viewBox="0 0 16 16">
  <path d="M14.85,8.78c0,.36-.41.57-.7.36-.32-.24-.52-.62-.68-.92-.22-.42-.38-.67-.58-.67s-.35.25-.58.67c-.26.49-.62,1.16-1.38,1.16s-1.12-.67-1.38-1.16c-.22-.42-.37-.67-.58-.67s-.35.25-.57.67c-.26.49-.62,1.16-1.38,1.16s-1.12-.67-1.38-1.16c-.22-.42-.37-.67-.57-.67s-.35.25-.57.67c-.26.49-.62,1.16-1.38,1.16s-1.12-.67-1.38-1.16c-.16-.29-.28-.51-.4-.61-.1-.08-.17-.19-.17-.32v-.07c0-.36.41-.57.7-.36.32.24.52.62.68.92.22.42.37.67.57.67s.35-.25.57-.67c.26-.49.62-1.16,1.38-1.16s1.12.67,1.38,1.16c.22.42.37.67.58.67s.35-.25.57-.67c.26-.49.62-1.16,1.38-1.16s1.12.67,1.38,1.16c.22.42.37.67.58.67s.35-.25.58-.67c.26-.49.62-1.16,1.38-1.16s1.12.67,1.38,1.16c.16.29.28.51.41.61.1.08.17.19.17.32v.07Z" fill="#336ccb"/>
  <path d="M8.12,15.06c-1.65,0-3.22-.57-4.49-1.61-.2-.17-.22-.48-.04-.67h0c.17-.18.44-.19.62-.04,1.14.95,2.57,1.44,4.07,1.4,1.5-.04,2.9-.61,3.99-1.61.18-.16.45-.16.62,0h0c.19.18.19.49,0,.67-1.25,1.16-2.87,1.81-4.59,1.86-.06,0-.13,0-.19,0Z" fill="#336ccb"/>
  <path d="M3.35,3.47h0c-.19-.18-.19-.49,0-.67,1.29-1.19,2.93-1.81,4.59-1.85s3.32.49,4.68,1.61c.2.17.22.48.04.67h0c-.17.17-.44.19-.62.04-1.17-.96-2.6-1.43-4.03-1.4s-2.89.57-4.03,1.61c-.18.16-.45.16-.62,0Z" fill="#336ccb"/>
</svg>