<?xml version="1.0" encoding="UTF-8"?>
<svg id="Layer_1" xmlns="http://www.w3.org/2000/svg" viewBox="0 0 512 512">
  <path d="M309.51,161.25c-13.51-13.25-31.25-20.43-50.31-20.28-8.73.08-15.75,7.23-15.66,15.97.08,8.68,7.15,15.66,15.82,15.66.15-.03.35-.01.53,0,21.45,0,39.01,17.35,39.22,38.85.08,8.68,7.15,15.66,15.82,15.66h.15c8.73-.08,15.75-7.23,15.66-15.97-.19-18.93-7.71-36.65-21.22-49.9Z" fill="#336ccb"/>
  <path d="M261.69,45.2c.6,0,1.14-.01,1.71-.01,81.38,0,151.15,60.3,162.64,140.86,1.13,7.89,7.9,13.58,15.64,13.58.74,0,1.49-.05,2.26-.15,8.65-1.24,14.65-9.25,13.43-17.9-13.72-96.1-96.92-168.02-193.96-168.02-.61,0-1.25.01-1.86.01-8.73.08-15.75,7.23-15.66,15.97.08,8.68,7.15,15.66,15.82,15.66Z" fill="#336ccb"/>
  <path d="M395.21,221.98c1.44-37.71-12.04-75.89-40.77-104.61-54.7-54.7-143.7-54.7-198.4,0-28.11,28.12-42.53,65.91-40.8,105.17-23.44,6.05-45.65,18.08-63.97,36.4-54.7,54.7-54.7,143.7,0,198.4,27.35,27.35,63.28,41.03,99.21,41.03s71.85-13.68,99.2-41.03c2.22-2.21,4.24-4.61,6.31-6.98,25.74,29.4,63.42,48.08,105.47,48.08,77.36,0,140.3-62.94,140.3-140.3,0-64.56-44.95-120.86-106.54-136.17ZM361.46,466.81c-59.91,0-108.67-48.75-108.67-108.67,0-8.73-7.09-15.82-15.82-15.82s-15.82,7.09-15.82,15.82c0,23.52,5.88,45.66,16.15,65.14-3.08,4.09-6.35,8.06-9.99,11.69-42.37,42.38-111.31,42.38-153.68,0-42.37-42.37-42.37-111.3,0-153.67,42.36-42.36,111.3-42.38,153.68,0,6.18,6.18,16.19,6.18,22.37,0,6.18-6.18,6.18-16.19,0-22.37-28.34-28.33-65.87-41.86-103.08-40.83-.47-29.3,10.78-57.34,31.81-78.38,42.37-42.37,111.3-42.37,153.67,0,42.37,42.37,42.37,111.31,0,153.68-6.18,6.18-6.18,16.19,0,22.37,3.09,3.09,7.14,4.63,11.18,4.63s8.09-1.54,11.18-4.63c17.88-17.88,29.81-39.45,36-62.27,46.21,12.84,79.68,55.63,79.68,104.63,0,59.91-48.75,108.67-108.67,108.67Z" fill="#336ccb"/>
</svg>