<?xml version="1.0" encoding="UTF-8"?>
<svg id="Layer_1" xmlns="http://www.w3.org/2000/svg" viewBox="0 0 128 128">
  <path d="M123.01,70.73c0,3.1-3.56,4.95-6.04,3.08-2.72-2.06-4.46-5.3-5.87-7.94-1.93-3.61-3.23-5.8-4.96-5.8s-3.03,2.19-4.96,5.8c-2.25,4.2-5.33,9.96-11.91,9.96s-9.66-5.76-11.91-9.97c-1.93-3.61-3.23-5.8-4.96-5.8s-3.02,2.19-4.95,5.8c-2.25,4.21-5.33,9.97-11.9,9.97s-9.66-5.76-11.9-9.97c-1.93-3.61-3.23-5.8-4.95-5.8s-3.02,2.19-4.95,5.8c-2.25,4.21-5.33,9.97-11.9,9.97s-9.65-5.76-11.9-9.97c-1.35-2.53-2.39-4.36-3.48-5.23-.86-.68-1.47-1.63-1.47-2.73v-.62c0-3.11,3.56-4.95,6.04-3.08,2.72,2.06,4.45,5.3,5.86,7.94,1.93,3.61,3.22,5.8,4.95,5.8s3.02-2.19,4.95-5.8c2.25-4.21,5.33-9.97,11.9-9.97s9.66,5.76,11.9,9.97c1.93,3.61,3.23,5.8,4.95,5.8s3.02-2.19,4.95-5.8c2.25-4.21,5.33-9.97,11.9-9.97s9.66,5.76,11.91,9.97c1.93,3.61,3.23,5.8,4.96,5.8s3.03-2.19,4.96-5.8c2.25-4.21,5.33-9.96,11.91-9.96s9.66,5.76,11.91,9.96c1.35,2.53,2.39,4.36,3.49,5.23.86.68,1.47,1.63,1.47,2.74v.62Z" fill="#336ccb"/>
  <path d="M65.03,124.79c-14.22,0-27.75-4.88-38.65-13.9-1.75-1.45-1.89-4.1-.33-5.75h0c1.43-1.51,3.77-1.63,5.38-.31,9.85,8.14,22.15,12.41,35.06,12.05,12.9-.34,24.96-5.25,34.37-13.91,1.53-1.41,3.87-1.41,5.38.02h0c1.65,1.57,1.65,4.22-.03,5.76-10.81,9.96-24.68,15.61-39.51,16-.56.02-1.11.02-1.67.02Z" fill="#336ccb"/>
  <path d="M23.91,24.96h0c-1.65-1.57-1.65-4.23.03-5.77C35.08,8.96,49.2,3.61,63.45,3.23c14.25-.38,28.64,4.21,40.3,13.83,1.76,1.45,1.91,4.1.34,5.76h0c-1.43,1.51-3.77,1.63-5.37.31-10.06-8.3-22.44-12.29-34.73-12.04-12.52.25-24.94,4.91-34.72,13.9-1.53,1.4-3.87,1.4-5.37-.03Z" fill="#336ccb"/>
</svg>