<svg xmlns="http://www.w3.org/2000/svg" width="300" height="276" fill="none"><path d="M279.175 124.442a88.162 88.162 0 0 0-42.036-28.049v-.996c0-48.136-39.208-87.135-87.718-87.226-48.51 0-87.81 38.908-87.9 87.046v1.266c-46.232 14.479-71.946 63.429-57.356 109.305 14.589 45.875 63.92 71.39 110.15 56.914 13.313-4.162 25.35-11.4 35.288-21.083 34.377 33.931 89.907 33.751 124.102-.362 31.914-31.67 34.193-82.25 5.47-116.815zm-67.931 120.435c-36.292-.092-65.653-29.227-65.653-65.149 0-6.062-4.924-10.948-11.033-10.948-6.11 0-11.034 4.886-11.034 10.948 0 15.653 4.196 31.126 12.31 44.608-24.801 26.241-66.382 27.508-92.824 2.806-26.445-24.612-27.721-65.872-2.828-92.113 18.055-19.001 45.776-25.515 70.485-16.559l.274.092c2.462.814 6.109 2.532 7.203 3.438a11.074 11.074 0 0 0 15.593-1.176c4.012-4.616 3.465-11.492-1.184-15.473-4.833-4.072-12.494-6.878-14.317-7.51a88.479 88.479 0 0 0-30.273-5.338c-1.46 0-2.826 0-4.194.09 1.55-35.922 32.188-63.792 68.478-62.253 36.2 1.538 64.285 31.941 62.735 67.953-.912 20.087-11.033 38.546-27.447 50.218a10.86 10.86 0 0 0-2.552 15.293c3.556 4.976 10.486 6.062 15.409 2.532 16.413-11.672 28.36-28.591 33.738-47.866 34.013 12.488 51.427 49.948 38.936 83.698-9.666 25.698-34.285 42.71-61.822 42.71z" style="fill:#f3702a;stroke-width:1.66821003"/></svg>