<svg height="16" width="16" xmlns="http://www.w3.org/2000/svg">
    <path d="M14.16 3.254a.997.997 0 0 0-.668-.768L8.257 1.03a1.057 1.057 0 0 0-.498 0L2.522 2.486a.937.937 0 0 0-.668.768c-.08.568-.738 5.615 1.136 8.287a8.976 8.976 0 0 0 4.788 3.451.848.848 0 0 0 .229 0 .778.778 0 0 0 .22 0 8.906 8.906 0 0 0 4.796-3.45c1.845-2.673 1.207-7.72 1.137-8.288zm-1.865 4.757a6.133 6.133 0 0 1-.857 2.413 7.899 7.899 0 0 1-3.341 2.574V8.011ZM8.097 3.024v4.987H3.699a24.225 24.225 0 0 1 0-3.81z" style="opacity:.8;fill-opacity:1;stroke-width:.997313"/>
</svg>
